<?xml version="1.0" encoding="UTF-8"?>
<svg version="1.1" xmlns="http://www.w3.org/2000/svg" width="602" height="495">
<path d="M0 0 C1.75825726 -0.00302572 3.51651321 -0.0069173 5.27476686 -0.01159257 C10.07527801 -0.0218275 14.87571409 -0.01970227 19.67623127 -0.01541197 C24.86594428 -0.01293646 30.05563961 -0.02196926 35.24534607 -0.02944946 C45.40172352 -0.04217665 55.55807451 -0.04399254 65.71445859 -0.0416492 C73.97532643 -0.03986328 82.23618626 -0.04162157 90.49705315 -0.04587364 C92.26336828 -0.04676643 92.26336828 -0.04676643 94.06536655 -0.04767724 C96.45791098 -0.04888906 98.85045541 -0.05010319 101.24299984 -0.05131962 C123.66479262 -0.06218802 146.08657034 -0.06003628 168.50836395 -0.05393478 C188.98970079 -0.04876908 209.47099001 -0.06001315 229.95231742 -0.07903299 C251.01174116 -0.09843881 272.0711424 -0.1066624 293.13057512 -0.10290974 C304.94199626 -0.1010015 316.75337691 -0.10344824 328.56479073 -0.11762428 C338.62283109 -0.12957423 348.68080606 -0.13090277 358.73884738 -0.11883412 C363.86335723 -0.11297007 368.98774768 -0.11177689 374.11224937 -0.12383652 C378.81724503 -0.13477947 383.52202281 -0.13149335 388.22700863 -0.11757483 C389.91538994 -0.11495078 391.6037888 -0.11722092 393.29215277 -0.1253107 C423.66441572 -0.26056131 450.6896047 6.94771351 473.11070251 28.63569641 C487.55124868 43.58904606 498.45796719 65.10224747 498.49492359 86.27981377 C498.49938144 87.46973077 498.50383928 88.65964777 498.50843221 89.88562286 C498.50815567 91.83325647 498.50815567 91.83325647 498.50787354 93.82023621 C498.51117536 95.22056941 498.5149016 96.62090167 498.51901501 98.02123272 C498.52900716 101.86472493 498.53274732 105.70820153 498.53540432 109.55170488 C498.53931573 113.69919017 498.54889355 117.84666319 498.55761719 121.99414062 C498.57735921 132.00885832 498.58744548 142.02357699 498.59634498 152.03830928 C498.60073206 156.75920946 498.60609782 161.48010854 498.61133385 166.20100784 C498.62834476 181.90304519 498.64283732 197.60508185 498.65008259 213.307127 C498.65199236 217.37986629 498.65391271 221.45260558 498.65586853 225.52534485 C498.65635227 226.53755451 498.65683601 227.54976417 498.65733441 228.59264685 C498.66562871 244.97736921 498.69095611 261.36201842 498.72344921 277.74670886 C498.75656679 294.5841623 498.77453564 311.42157862 498.77772683 328.25906479 C498.7798877 337.70628848 498.78857418 347.15340553 498.814188 356.60059738 C498.83595938 364.64898452 498.84391393 372.69723912 498.83422122 380.74565236 C498.82969494 384.84691954 498.83146439 388.94791362 498.85098267 393.04914284 C498.8687483 396.81488911 498.86750985 400.58016577 498.85208537 404.34591796 C498.84862621 406.3300788 498.86463498 408.31424535 498.88168985 410.29833591 C498.795712 422.48221748 496.42387215 434.8410329 490.54820251 445.63569641 C490.20128357 446.29722717 489.85436462 446.95875793 489.49693298 447.64033508 C486.53780728 453.1702941 483.28049844 458.35483955 479.36070251 463.26069641 C478.66847595 464.13983704 477.97624939 465.01897766 477.26304626 465.92475891 C464.49357357 481.06052788 444.12323999 493.33926994 424.25400484 495.48858416 C418.62243196 495.85300313 412.9864152 495.79877079 407.34593201 495.76863098 C405.45053871 495.77324768 403.55514899 495.77960572 401.65976667 495.78753996 C396.48500501 495.80415079 391.31054056 495.79602457 386.13577819 495.78359509 C380.5419556 495.77451301 374.94818271 495.78852995 369.35437012 495.79951477 C358.40936226 495.81727092 347.46446432 495.81347293 336.51945221 495.80186421 C327.62163209 495.79281874 318.7238427 495.79161071 309.82601929 495.79595947 C308.55806746 495.7965724 307.29011563 495.79718534 305.98374102 495.79781684 C303.40765972 495.79909579 300.83157843 495.80039264 298.25549716 495.80170721 C274.80563396 495.81277982 251.35584442 495.80131075 227.90599441 495.78033682 C206.5218872 495.76135591 185.13787529 495.76305449 163.75376892 495.78218079 C139.70072299 495.80362258 115.64774205 495.81200595 91.59468317 495.79973173 C89.0282507 495.79845758 86.46181823 495.79720009 83.89538574 495.79595947 C82.00144552 495.79503382 82.00144552 495.79503382 80.06924388 495.79408947 C71.18546229 495.79064048 62.30171458 495.79645519 53.41793823 495.80587769 C42.5867834 495.81711348 31.75574448 495.81402432 20.92460287 495.79275471 C15.40182962 495.78226567 9.87924941 495.77808593 4.35647774 495.79135132 C-0.70535445 495.80332538 -5.76681581 495.79663024 -10.82861465 495.77544111 C-12.65346314 495.77099625 -14.47834337 495.77319333 -16.30317122 495.78294426 C-30.2017059 495.85147717 -42.36559609 494.06186257 -54.88929749 487.51069641 C-55.56057678 487.1649054 -56.23185608 486.81911438 -56.92347717 486.46284485 C-62.7543794 483.36631853 -67.78444879 479.74810889 -72.63929749 475.26069641 C-73.6151178 474.37639954 -74.59093811 473.49210266 -75.59632874 472.58100891 C-92.40769246 456.87042081 -103.098534 435.4938826 -104.00918579 412.35140991 C-104.19272715 404.52679969 -104.18796114 396.70302899 -104.16219616 388.87671113 C-104.15305967 384.76346396 -104.16715753 380.65028207 -104.17811584 376.53704834 C-104.19581486 368.50110635 -104.19209978 360.46531459 -104.18046528 352.42936695 C-104.17139708 345.89291147 -104.17022153 339.35649782 -104.17456055 332.82003784 C-104.17517348 331.886402 -104.17578641 330.95276616 -104.17641792 329.99083832 C-104.17769694 328.09361882 -104.1789938 326.19639933 -104.18030828 324.29917985 C-104.19168884 306.54812296 -104.17864013 288.79714897 -104.15710682 271.04610568 C-104.13923814 255.84594731 -104.14234296 240.64591117 -104.16078186 225.445755 C-104.18223332 207.75414188 -104.19059043 190.06260124 -104.17833281 172.37097692 C-104.17705874 170.48110295 -104.17580125 168.59122897 -104.17456055 166.70135498 C-104.17394344 165.7717285 -104.17332634 164.84210201 -104.17269054 163.88430503 C-104.16925044 157.3628241 -104.17503693 150.84138952 -104.18447876 144.31991577 C-104.19574778 136.36219744 -104.19255637 128.40463674 -104.17135578 120.44693625 C-104.16091087 116.39409065 -104.15661005 112.34150697 -104.16995239 108.28866386 C-104.26900088 75.45880473 -98.78853323 50.04999804 -75.26429749 25.57319641 C-54.63078263 5.60527881 -27.85731765 -0.06846149 0 0 Z " fill="#F7F4EC" transform="translate(103.63929748535156,-0.2606964111328125)"/>
<path d="M0 0 C1.75825726 -0.00302572 3.51651321 -0.0069173 5.27476686 -0.01159257 C10.07527801 -0.0218275 14.87571409 -0.01970227 19.67623127 -0.01541197 C24.86594428 -0.01293646 30.05563961 -0.02196926 35.24534607 -0.02944946 C45.40172352 -0.04217665 55.55807451 -0.04399254 65.71445859 -0.0416492 C73.97532643 -0.03986328 82.23618626 -0.04162157 90.49705315 -0.04587364 C92.26336828 -0.04676643 92.26336828 -0.04676643 94.06536655 -0.04767724 C96.45791098 -0.04888906 98.85045541 -0.05010319 101.24299984 -0.05131962 C123.66479262 -0.06218802 146.08657034 -0.06003628 168.50836395 -0.05393478 C188.98970079 -0.04876908 209.47099001 -0.06001315 229.95231742 -0.07903299 C251.01174116 -0.09843881 272.0711424 -0.1066624 293.13057512 -0.10290974 C304.94199626 -0.1010015 316.75337691 -0.10344824 328.56479073 -0.11762428 C338.62283109 -0.12957423 348.68080606 -0.13090277 358.73884738 -0.11883412 C363.86335723 -0.11297007 368.98774768 -0.11177689 374.11224937 -0.12383652 C378.81724503 -0.13477947 383.52202281 -0.13149335 388.22700863 -0.11757483 C389.91538994 -0.11495078 391.6037888 -0.11722092 393.29215277 -0.1253107 C423.66441572 -0.26056131 450.6896047 6.94771351 473.11070251 28.63569641 C487.55124868 43.58904606 498.45796719 65.10224747 498.49492359 86.27981377 C498.49938144 87.46973077 498.50383928 88.65964777 498.50843221 89.88562286 C498.50815567 91.83325647 498.50815567 91.83325647 498.50787354 93.82023621 C498.51117536 95.22056941 498.5149016 96.62090167 498.51901501 98.02123272 C498.52900716 101.86472493 498.53274732 105.70820153 498.53540432 109.55170488 C498.53931573 113.69919017 498.54889355 117.84666319 498.55761719 121.99414062 C498.57735921 132.00885832 498.58744548 142.02357699 498.59634498 152.03830928 C498.60073206 156.75920946 498.60609782 161.48010854 498.61133385 166.20100784 C498.62834476 181.90304519 498.64283732 197.60508185 498.65008259 213.307127 C498.65199236 217.37986629 498.65391271 221.45260558 498.65586853 225.52534485 C498.65635227 226.53755451 498.65683601 227.54976417 498.65733441 228.59264685 C498.66562871 244.97736921 498.69095611 261.36201842 498.72344921 277.74670886 C498.75656679 294.5841623 498.77453564 311.42157862 498.77772683 328.25906479 C498.7798877 337.70628848 498.78857418 347.15340553 498.814188 356.60059738 C498.83595938 364.64898452 498.84391393 372.69723912 498.83422122 380.74565236 C498.82969494 384.84691954 498.83146439 388.94791362 498.85098267 393.04914284 C498.8687483 396.81488911 498.86750985 400.58016577 498.85208537 404.34591796 C498.84862621 406.3300788 498.86463498 408.31424535 498.88168985 410.29833591 C498.795712 422.48221748 496.42387215 434.8410329 490.54820251 445.63569641 C490.20128357 446.29722717 489.85436462 446.95875793 489.49693298 447.64033508 C486.53780728 453.1702941 483.28049844 458.35483955 479.36070251 463.26069641 C478.66847595 464.13983704 477.97624939 465.01897766 477.26304626 465.92475891 C464.49357357 481.06052788 444.12323999 493.33926994 424.25400484 495.48858416 C418.62243196 495.85300313 412.9864152 495.79877079 407.34593201 495.76863098 C405.45053871 495.77324768 403.55514899 495.77960572 401.65976667 495.78753996 C396.48500501 495.80415079 391.31054056 495.79602457 386.13577819 495.78359509 C380.5419556 495.77451301 374.94818271 495.78852995 369.35437012 495.79951477 C358.40936226 495.81727092 347.46446432 495.81347293 336.51945221 495.80186421 C327.62163209 495.79281874 318.7238427 495.79161071 309.82601929 495.79595947 C308.55806746 495.7965724 307.29011563 495.79718534 305.98374102 495.79781684 C303.40765972 495.79909579 300.83157843 495.80039264 298.25549716 495.80170721 C274.80563396 495.81277982 251.35584442 495.80131075 227.90599441 495.78033682 C206.5218872 495.76135591 185.13787529 495.76305449 163.75376892 495.78218079 C139.70072299 495.80362258 115.64774205 495.81200595 91.59468317 495.79973173 C89.0282507 495.79845758 86.46181823 495.79720009 83.89538574 495.79595947 C82.00144552 495.79503382 82.00144552 495.79503382 80.06924388 495.79408947 C71.18546229 495.79064048 62.30171458 495.79645519 53.41793823 495.80587769 C42.5867834 495.81711348 31.75574448 495.81402432 20.92460287 495.79275471 C15.40182962 495.78226567 9.87924941 495.77808593 4.35647774 495.79135132 C-0.70535445 495.80332538 -5.76681581 495.79663024 -10.82861465 495.77544111 C-12.65346314 495.77099625 -14.47834337 495.77319333 -16.30317122 495.78294426 C-30.2017059 495.85147717 -42.36559609 494.06186257 -54.88929749 487.51069641 C-55.56057678 487.1649054 -56.23185608 486.81911438 -56.92347717 486.46284485 C-62.7543794 483.36631853 -67.78444879 479.74810889 -72.63929749 475.26069641 C-73.6151178 474.37639954 -74.59093811 473.49210266 -75.59632874 472.58100891 C-92.40769246 456.87042081 -103.098534 435.4938826 -104.00918579 412.35140991 C-104.19272715 404.52679969 -104.18796114 396.70302899 -104.16219616 388.87671113 C-104.15305967 384.76346396 -104.16715753 380.65028207 -104.17811584 376.53704834 C-104.19581486 368.50110635 -104.19209978 360.46531459 -104.18046528 352.42936695 C-104.17139708 345.89291147 -104.17022153 339.35649782 -104.17456055 332.82003784 C-104.17517348 331.886402 -104.17578641 330.95276616 -104.17641792 329.99083832 C-104.17769694 328.09361882 -104.1789938 326.19639933 -104.18030828 324.29917985 C-104.19168884 306.54812296 -104.17864013 288.79714897 -104.15710682 271.04610568 C-104.13923814 255.84594731 -104.14234296 240.64591117 -104.16078186 225.445755 C-104.18223332 207.75414188 -104.19059043 190.06260124 -104.17833281 172.37097692 C-104.17705874 170.48110295 -104.17580125 168.59122897 -104.17456055 166.70135498 C-104.17394344 165.7717285 -104.17332634 164.84210201 -104.17269054 163.88430503 C-104.16925044 157.3628241 -104.17503693 150.84138952 -104.18447876 144.31991577 C-104.19574778 136.36219744 -104.19255637 128.40463674 -104.17135578 120.44693625 C-104.16091087 116.39409065 -104.15661005 112.34150697 -104.16995239 108.28866386 C-104.26900088 75.45880473 -98.78853323 50.04999804 -75.26429749 25.57319641 C-54.63078263 5.60527881 -27.85731765 -0.06846149 0 0 Z M-63.53773499 52.56929016 C-70.17202943 61.06562635 -73.95572506 69.87267412 -76.63929749 80.26069641 C-76.81657214 80.86692892 -76.99384679 81.47316142 -77.17649341 82.09776461 C-77.72782962 84.67445461 -77.76729135 87.04400183 -77.77072525 89.68010521 C-77.7745664 90.78715541 -77.77840754 91.89420562 -77.78236508 93.03480279 C-77.7814986 94.25092331 -77.78063212 95.46704383 -77.77973938 96.72001648 C-77.7827105 98.01212591 -77.78568162 99.30423534 -77.78874278 100.6354996 C-77.79681166 104.22513806 -77.7986023 107.81475652 -77.79934025 111.40440297 C-77.80119111 115.27512603 -77.80873883 119.14583872 -77.81547546 123.01655579 C-77.82906068 131.48392961 -77.8350844 139.95129871 -77.83948612 148.41868162 C-77.84224943 153.70877018 -77.84648706 158.99885692 -77.8509903 164.28894424 C-77.86318548 178.94263024 -77.87348282 193.59631476 -77.87686539 208.25000572 C-77.87708495 209.18804375 -77.87730452 210.12608177 -77.87753074 211.09254519 C-77.87774902 212.03280982 -77.87796729 212.97307445 -77.87819219 213.94183195 C-77.87863565 215.84711099 -77.87908221 217.75239003 -77.87953186 219.65766907 C-77.87975329 220.60275021 -77.87997472 221.54783136 -77.88020286 222.52155133 C-77.88414662 237.8181293 -77.90158662 253.11465951 -77.92489138 268.41121905 C-77.94863844 284.12536762 -77.96106884 299.83949228 -77.9622333 315.55365908 C-77.96314842 324.37261023 -77.96885915 333.19149922 -77.98705292 342.0104332 C-78.00249953 349.52421947 -78.00754775 357.03792439 -77.99931481 364.55172352 C-77.99542377 368.38130093 -77.9962615 372.21071477 -78.01037216 376.04027176 C-78.02557331 380.20414428 -78.0171985 384.36765265 -78.00679016 388.53153992 C-78.01484657 389.72535322 -78.02290297 390.91916651 -78.03120351 392.14915597 C-77.92222469 410.88812989 -72.23635153 426.32611732 -59.63929749 440.26069641 C-59.01281311 440.96839172 -58.38632874 441.67608704 -57.74085999 442.40522766 C-47.68921872 453.1338162 -33.09500997 460.82426464 -18.22824687 461.39064825 C-16.90827859 461.39297889 -15.58831032 461.39530953 -14.22834301 461.3977108 C-13.48785966 461.40036263 -12.74737631 461.40301445 -11.98445407 461.40574664 C-9.49546227 461.41342507 -7.00651993 461.41399826 -4.51751709 461.41459656 C-2.71794137 461.41861216 -0.91836656 461.42305054 0.88120717 461.42787611 C5.83290928 461.43983691 10.78460165 461.44548894 15.73631537 461.45005727 C21.07469485 461.45601534 26.4130627 461.46762479 31.75143433 461.47834778 C44.64831386 461.50286877 57.54519725 461.51749937 70.44209293 461.53040785 C74.08560582 461.53412028 77.72911832 461.53809348 81.37263083 461.54216051 C104.00398011 461.56739974 126.63533001 461.58945037 149.26669025 461.60188866 C154.50872106 461.6048183 159.75075184 461.60777997 164.99278259 461.61079407 C166.29564739 461.61154012 167.59851218 461.61228617 168.94085773 461.61305483 C190.03651444 461.62570271 211.13208675 461.65891819 232.22770403 461.7005959 C253.89253788 461.74304677 275.55732858 461.76658742 297.22220391 461.77180922 C309.38353812 461.77521996 321.54474049 461.78693541 333.70603371 461.81991196 C344.0656021 461.84795702 354.42501162 461.85889224 364.78461502 461.8477165 C370.06662894 461.84254113 375.34831042 461.84534372 380.63027573 461.87018204 C385.47489012 461.89277262 390.31893514 461.89185884 395.16356017 461.87297817 C396.90729873 461.87019184 398.65107671 461.87569973 400.39475218 461.8907911 C420.62719571 462.0550592 437.8202145 456.50333999 452.56773376 442.11616516 C466.50974543 427.86216442 472.84235536 412.65930019 472.75511169 392.78323364 C472.76424835 390.80758809 472.76424835 390.80758809 472.77356958 388.79203051 C472.78986343 385.16499982 472.78767292 381.53818799 472.78219461 377.91113365 C472.77951124 373.98798559 472.79408073 370.06489417 472.80628967 366.14176941 C472.8272919 358.46632401 472.83188748 350.79095424 472.83010179 343.1154835 C472.82879137 336.87207133 472.83261256 330.62868264 472.84002686 324.38527489 C472.84212618 322.58311786 472.84422378 320.78096084 472.84631968 318.97880381 C472.8473632 318.08165554 472.84840673 317.18450727 472.84948188 316.26017269 C472.86836374 299.31132641 472.86734055 282.36252347 472.86051255 265.41367104 C472.85494037 249.93454716 472.87575236 234.45558895 472.90887302 218.97650377 C472.94267094 203.05644933 472.95777065 187.13647412 472.95315599 171.21638316 C472.95091724 162.28900833 472.956067 153.36178656 472.98104858 144.43444252 C473.00214087 136.8326296 473.00557571 129.23105363 472.98674899 121.62923072 C472.97763914 117.75672887 472.97630029 113.88466786 472.99710464 110.01220131 C473.12282448 84.92512781 470.74742096 65.5437259 452.69664001 46.53804016 C441.88976106 36.00223676 430.12363962 30.27841444 415.36070251 27.26069641 C414.6302251 27.08726599 413.89974769 26.91383557 413.1471346 26.73514968 C409.76606649 26.15944614 406.55258285 26.13124518 403.12153912 26.12647533 C402.39962787 26.1241231 401.67771663 26.12177087 400.93392929 26.11934736 C398.50811262 26.11267558 396.08234973 26.11311504 393.65652466 26.11352539 C391.90232188 26.11022561 390.14811986 26.1064998 388.39391881 26.10238391 C383.56763222 26.0923684 378.74135806 26.08864782 373.91506255 26.0859946 C368.71165478 26.08209012 363.50825684 26.07251176 358.30485535 26.06378174 C345.73426462 26.04401955 333.16367309 26.03395061 320.59307072 26.02505395 C314.67125186 26.02066992 308.74943389 26.01530334 302.82761574 26.01006508 C283.13753921 25.99305168 263.44746324 25.97855859 243.75738049 25.97131634 C238.64769681 25.96940648 233.53801313 25.96748614 228.42832947 25.9655304 C227.15836143 25.96504666 225.8883934 25.96456292 224.57994149 25.96406452 C204.0177866 25.95576829 183.45568996 25.93043872 162.89356049 25.89794972 C141.77565203 25.8648551 120.65777314 25.84686533 99.53983861 25.8436721 C87.68592773 25.84150904 75.83210175 25.8327904 63.97821617 25.80721092 C53.88033509 25.78547098 43.78255954 25.77746966 33.68465772 25.7871777 C28.53635586 25.79171307 23.38827158 25.78988069 18.23999977 25.77041626 C13.51757592 25.75271686 8.79552727 25.75383699 4.07309905 25.76931355 C2.37377802 25.7716794 0.67443054 25.76741982 -1.02485023 25.7554849 C-25.83089052 25.59219274 -46.96809444 33.39417611 -63.53773499 52.56929016 Z " fill="#1B201E" transform="translate(103.63929748535156,-0.2606964111328125)"/>
<path d="M0 0 C3.8431223 1.78372846 6.48441391 4.2262513 9.421875 7.2265625 C9.92672424 7.73424164 10.43157349 8.24192078 10.95172119 8.76498413 C12.55592096 10.38033842 14.15300856 12.00252209 15.75 13.625 C16.83938107 14.72441698 17.9292199 15.82338059 19.01953125 16.921875 C21.68501885 19.6093602 24.34415143 22.30299021 27 25 C25.42339336 28.80941965 23.02818535 31.2182791 20.12789917 34.11260986 C19.62799693 34.61422095 19.12809469 35.11583204 18.6130439 35.63264346 C16.93798853 37.31099114 15.25588872 38.98209396 13.57373047 40.65332031 C12.37105074 41.85543587 11.16881129 43.05799204 9.96697998 44.26095581 C6.703071 47.52543908 3.43302818 50.78371516 0.16186285 54.04092503 C-3.25567758 57.44597086 -6.66756266 60.85667368 -10.08004761 64.26678467 C-16.5429375 70.72345606 -23.01090917 77.17501188 -29.48071468 83.62475276 C-36.84610834 90.96779895 -44.2058301 98.31651864 -51.56507707 105.66572428 C-66.70374147 120.7834783 -81.84952706 135.8940807 -97 151 C-95.55695686 154.01409306 -94.13408132 156.10472016 -91.7421875 158.453125 C-90.80439453 159.38125 -90.80439453 159.38125 -89.84765625 160.328125 C-89.19667969 160.96234375 -88.54570312 161.5965625 -87.875 162.25 C-87.21628906 162.8996875 -86.55757813 163.549375 -85.87890625 164.21875 C-84.25703357 165.81711727 -82.6306719 167.41061897 -81 169 C-77.19058035 167.42339336 -74.7817209 165.02818535 -71.88739014 162.12789917 C-71.38577905 161.62799693 -70.88416796 161.12809469 -70.36735654 160.6130439 C-68.68900886 158.93798853 -67.01790604 157.25588872 -65.34667969 155.57373047 C-64.14456413 154.37105074 -62.94200796 153.16881129 -61.73904419 151.96697998 C-58.47456092 148.703071 -55.21628484 145.43302818 -51.95907497 142.16186285 C-48.55402914 138.74432242 -45.14332632 135.33243734 -41.73321533 131.91995239 C-35.27654394 125.4570625 -28.82498812 118.98909083 -22.37524724 112.51928532 C-15.03220105 105.15389166 -7.68348136 97.7941699 -0.33427572 90.43492293 C14.7834783 75.29625853 29.8940807 60.15047294 45 45 C49.03070124 46.85723377 51.78284024 49.52717467 54.859375 52.6640625 C55.40861633 53.21613373 55.95785767 53.76820496 56.52374268 54.33700562 C58.27059293 56.09501815 60.01034601 57.8598689 61.75 59.625 C62.93573591 60.8207708 64.1219288 62.01608865 65.30859375 63.2109375 C68.21105085 66.13540253 71.1071641 69.06601874 74 72 C68.20129217 79.01634998 61.84454037 85.49128861 55.5168457 92.02514648 C54.8966197 92.66683462 54.2763937 93.30852276 53.63737297 93.96965599 C41.33868007 106.69343533 28.95329157 119.3320467 16.53854084 131.94251919 C8.65980261 139.94861208 0.80803673 147.97780019 -6.98022461 156.07202148 C-13.80430977 163.16410352 -20.67753818 170.20429455 -27.60973483 177.19079453 C-31.25975714 180.87259122 -34.88422509 184.57236703 -38.45035362 188.33563042 C-58.82029689 209.78446406 -77.92666496 220.98258835 -106.2529068 229.52069283 C-113.16999792 231.62805468 -119.86039332 234.2807793 -126.58203125 236.9375 C-128.82910941 237.7994048 -131.07701581 238.65915716 -133.32617188 239.515625 C-136.64112902 240.78361676 -139.95467525 242.05492792 -143.26538086 243.33398438 C-146.61754243 244.62754437 -149.97424413 245.90862701 -153.33203125 247.1875 C-154.3254805 247.57478271 -155.31892975 247.96206543 -156.34248352 248.36108398 C-165.17966436 251.70451424 -165.17966436 251.70451424 -170 251 C-172.4375 249 -172.4375 249 -174 246 C-173.62196935 239.79529415 -172.01248385 234.28031236 -170.06005859 228.40625 C-169.75904236 227.48158936 -169.45802612 226.55692871 -169.14788818 225.60424805 C-168.15621725 222.56675763 -167.1532356 219.53317138 -166.1484375 216.5 C-165.44910113 214.37828392 -164.74985325 212.25653866 -164.0506897 210.13476562 C-162.58514487 205.6947335 -161.11298914 201.25695164 -159.63720703 196.8203125 C-157.75272647 191.15061129 -155.89334644 185.47301725 -154.03995323 179.79309082 C-152.60499903 175.40991993 -151.15243247 171.0327334 -149.6950264 166.65698242 C-149.00211294 164.56684404 -148.31561125 162.47456819 -147.63581467 160.38012695 C-146.68111242 157.44482618 -145.70180652 154.5188317 -144.71630859 151.59375 C-144.44382294 150.73740967 -144.17133728 149.88106934 -143.89059448 148.9987793 C-141.73386221 142.72368109 -138.63762125 138.68672572 -134 134 C-133.08525658 133.06239334 -132.17051315 132.12478668 -131.22805023 131.1587677 C-127.81230025 127.67730786 -124.35844378 124.23455315 -120.90454102 120.79101562 C-119.58311327 119.46987035 -118.26190646 118.14850404 -116.94090271 116.82693481 C-113.37341815 113.25916462 -109.80286982 109.69447517 -106.23174405 106.13035011 C-102.49302473 102.39790331 -98.75715751 98.66260398 -95.02098083 94.9276123 C-87.95419234 87.86392566 -80.88485972 80.80279092 -73.81459898 73.74257994 C-65.76182186 65.70099962 -57.71190106 57.65656259 -49.66221344 49.61188984 C-33.1113082 33.07142301 -16.55683703 16.53452901 0 0 Z " fill="#191E1D" transform="translate(372,133)"/>
<path d="M0 0 C4.58840153 2.42741242 7.69627249 5.65816999 10.00390625 10.2734375 C10.51741844 16.43558378 9.77897087 19.32203374 6.00390625 24.2734375 C3.93469415 26.60611997 1.74112489 28.79989742 -0.47363281 30.99389648 C-1.1148558 31.63701782 -1.7560788 32.28013916 -2.41673279 32.94274902 C-4.52688137 35.05658632 -6.64411827 37.16316124 -8.76171875 39.26953125 C-10.23935853 40.74597757 -11.71662735 42.22279524 -13.19354248 43.69996643 C-16.28723865 46.79210078 -19.38425698 49.88085486 -22.48388672 52.96704102 C-26.44078116 56.90698357 -30.39109927 60.85343846 -34.33914566 64.80224514 C-37.38961496 67.85244133 -40.44269306 70.90001496 -43.49663544 73.94673347 C-44.95315226 75.40008574 -46.40907973 76.85402891 -47.86438751 78.30859184 C-49.90742562 80.3494406 -51.95373668 82.38695123 -54.00097656 84.42358398 C-54.59242966 85.01549026 -55.18388275 85.60739655 -55.79325867 86.21723938 C-59.47086564 89.86727887 -63.27323597 93.3242722 -67.20209885 96.70262241 C-69.75053719 98.93402529 -72.11737491 101.2991809 -74.49609375 103.7109375 C-75.35203125 104.57589844 -76.20796875 105.44085938 -77.08984375 106.33203125 C-77.71890625 106.97269531 -78.34796875 107.61335938 -78.99609375 108.2734375 C-77.48699363 111.81463808 -75.42490061 114.08948115 -72.70703125 116.79296875 C-71.84722656 117.65083984 -70.98742187 118.50871094 -70.1015625 119.39257812 C-69.20050781 120.28138672 -68.29945312 121.17019531 -67.37109375 122.0859375 C-66.49324219 122.96314453 -65.61539063 123.84035156 -64.7109375 124.74414062 C-61.0168597 128.41351805 -57.31694347 132.0130642 -53.36523438 135.40429688 C-48.01000181 140.06116214 -43.02168346 145.08357801 -38.00390625 150.09765625 C-36.96645033 151.13189143 -35.92892256 152.16605455 -34.8913269 153.20014954 C-32.73307613 155.3524561 -30.57685734 157.50677472 -28.421875 159.66235352 C-25.66306246 162.42126836 -22.8973906 165.17319716 -20.12997627 167.92348003 C-17.99215889 170.05018387 -15.85889686 172.18141212 -13.72689438 174.31394386 C-12.70864065 175.33102001 -11.68877064 176.34648075 -10.66724014 177.36026573 C-9.2436311 178.77407199 -7.8269775 180.19487152 -6.41064453 181.6159668 C-5.60426544 182.42092087 -4.79788635 183.22587494 -3.96707153 184.05522156 C-0.24627797 188.24274902 0.45526292 191.54835678 0.3203125 197.02734375 C-0.3458101 201.75599184 -3.14087227 204.50165226 -6.55859375 207.5859375 C-10.24931732 210.14105381 -13.3438116 210.44326548 -17.765625 210.69921875 C-24.69096445 209.37721875 -29.99055673 202.56177116 -34.72363281 197.8046875 C-35.5796106 196.95221436 -36.43558838 196.09974121 -37.31750488 195.22143555 C-39.65156843 192.89464127 -41.98110597 190.56343548 -44.30835438 188.22982788 C-46.74942212 185.78367766 -49.19538735 183.34243229 -51.64056396 180.90039062 C-55.74282011 176.8017662 -59.84085645 172.69895809 -63.93652344 168.59375 C-68.66913253 163.85024337 -73.408923 159.11400409 -78.15247941 154.38144684 C-82.23102157 150.31198286 -86.3056506 146.23863163 -90.37703872 142.16201019 C-92.8062247 139.72970931 -95.23673443 137.29877258 -97.670784 134.87133789 C-100.38164469 132.16733152 -103.08427891 129.45519497 -105.78613281 126.7421875 C-106.59238098 125.93998779 -107.39862915 125.13778809 -108.22930908 124.3112793 C-108.96383301 123.57111572 -109.69835693 122.83095215 -110.45513916 122.06835938 C-111.09444492 121.42829956 -111.73375069 120.78823975 -112.39242935 120.12878418 C-115.63877574 116.37294973 -116.22853288 113.44075058 -116.359375 108.46875 C-115.13619334 101.07705005 -109.58670818 96.46274482 -104.50488281 91.45751953 C-103.63786743 90.59167236 -102.77085205 89.7258252 -101.87756348 88.83374023 C-99.99675283 86.95764397 -98.11346802 85.08451739 -96.22522736 83.2159462 C-93.23319035 80.25506684 -90.25168847 77.28372587 -87.27142334 74.31100464 C-82.55052597 69.60457875 -77.82246429 64.90542418 -73.09139609 60.20922458 C-64.63382987 51.81355072 -56.1882866 43.40579166 -47.74566817 34.99508941 C-44.78766624 32.04884231 -41.8265107 29.10581361 -38.86258745 26.16552377 C-36.57480067 23.89496031 -34.29017481 21.62121853 -32.00488281 19.34814453 C-31.19319641 18.54476654 -30.38151001 17.74138855 -29.54522705 16.91366577 C-25.32982572 12.71463169 -21.29276795 8.43738216 -17.4425621 3.89971733 C-12.78568923 -1.33605462 -6.52979095 -2.37679279 0 0 Z " fill="#1A1F1E" transform="translate(186.99609375,142.7265625)"/>
<path d="M0 0 C0.96679688 -0.01933594 1.93359375 -0.03867188 2.9296875 -0.05859375 C12.36176384 1.40579952 18.17841831 7.89688433 24.609375 14.390625 C25.59668824 15.37523753 26.58459407 16.35925616 27.57305908 17.3427124 C29.63355316 19.39733865 31.68671481 21.45894795 33.73486328 23.52587891 C36.34599402 26.1597974 38.97467799 28.77534363 41.60915756 31.38588333 C43.64975648 33.41195052 45.68063756 35.44754497 47.7088089 37.48604584 C48.67382504 38.45370893 49.6417621 39.41846905 50.61278534 40.38010406 C57.52721021 47.24227481 64.0827151 54.21123799 64.4375 64.5 C64.15889057 75.17706435 58.60773156 81.81616827 51.203125 88.9453125 C50.34313904 89.79680878 49.48315308 90.64830505 48.59710693 91.52560425 C45.87026369 94.21909209 43.12323456 96.89085953 40.375 99.5625 C38.51294462 101.39443342 36.65225253 103.22775366 34.79296875 105.0625 C30.25262544 109.53699558 25.6955593 113.99388469 21.125 118.4375 C16.24523249 114.37195329 11.65644744 110.10923724 7.17993164 105.60595703 C6.19816452 104.62440895 6.19816452 104.62440895 5.19656372 103.62303162 C3.05704586 101.48282311 0.92108124 99.33910617 -1.21484375 97.1953125 C-2.70677655 95.70151251 -4.19893186 94.20793472 -5.69129944 92.71456909 C-9.60118949 88.80087761 -13.50806594 84.88419135 -17.41430664 80.96685791 C-21.40784006 76.96305912 -25.40423809 72.96212187 -29.40039062 68.9609375 C-37.22805485 61.12257787 -45.05253599 53.28104907 -52.875 45.4375 C-49.70057771 41.68932666 -46.53130926 37.97263863 -43.07617188 34.47753906 C-42.0548114 33.44176727 -42.0548114 33.44176727 -41.01281738 32.3850708 C-40.29702515 31.66502869 -39.58123291 30.94498657 -38.84375 30.203125 C-38.08960815 29.44328308 -37.33546631 28.68344116 -36.55847168 27.90057373 C-34.97315448 26.30586455 -33.38642092 24.71256227 -31.79833984 23.12060547 C-29.37523983 20.6877408 -26.96301571 18.24441352 -24.55078125 15.80078125 C-23.00326411 14.24673838 -21.45510868 12.6933308 -19.90625 11.140625 C-19.19045776 10.41248596 -18.47466553 9.68434692 -17.73718262 8.93414307 C-12.39245972 3.61297704 -7.84436852 0.01040367 0 0 Z " fill="#191F1D" transform="translate(440.875,72.5625)"/>
<path d="M0 0 C0.82242188 -0.02835938 1.64484375 -0.05671875 2.4921875 -0.0859375 C8.58413486 0.98060521 13.03613094 5.97802362 17.2578125 10.20703125 C17.81693329 10.76186691 18.37605408 11.31670258 18.95211792 11.88835144 C20.1260489 13.05657158 21.29741176 14.22737758 22.46630859 15.40063477 C24.24324433 17.18073231 26.03309998 18.94707848 27.82421875 20.71289062 C28.96956063 21.85595917 30.11411844 22.99981399 31.2578125 24.14453125 C31.78706329 24.6645723 32.31631409 25.18461334 32.86160278 25.72041321 C36.84816996 29.75655698 40.42206898 34.14461847 41.65625 39.81640625 C41.6459375 40.51636719 41.635625 41.21632812 41.625 41.9375 C41.64046875 42.99130859 41.64046875 42.99130859 41.65625 44.06640625 C39.94222032 51.51487348 32.74189582 57.04679726 27.57055664 62.20410156 C26.59246395 63.18654652 25.61478841 64.16940693 24.63749695 65.15264893 C21.99347709 67.81001004 19.34313895 70.46098137 16.69117284 73.11040974 C14.47504264 75.32546758 12.26190199 77.54350066 10.04870218 79.76148582 C4.82818377 84.9930811 -0.3976226 90.21935248 -5.62670898 95.44238281 C-11.01819435 100.82782003 -16.40041804 106.22238862 -21.77823156 111.62147546 C-26.4013935 116.26225059 -31.03033885 120.89720081 -35.66394335 125.52754951 C-38.42901172 128.29080549 -41.19181139 131.05623709 -43.94901848 133.82733917 C-46.54019012 136.43108101 -49.13850923 139.02747177 -51.74249077 141.61840057 C-53.15040569 143.02282129 -54.55092149 144.43464733 -55.95120239 145.84667969 C-56.79371048 146.68217346 -57.63621857 147.51766724 -58.5042572 148.378479 C-59.59570242 149.47017584 -59.59570242 149.47017584 -60.70919704 150.58392715 C-65.13261726 154.24200132 -69.22533408 154.87058473 -74.875 154.375 C-80.55049553 152.33182161 -84.17373721 148.77752559 -86.875 143.375 C-87.38744948 137.2256063 -86.6966271 134.2823725 -82.875 129.375 C-80.16002632 126.38609596 -77.30221029 123.54935666 -74.43457031 120.70751953 C-73.58542557 119.85808273 -72.73628082 119.00864594 -71.86140442 118.13346863 C-69.54505907 115.81827349 -67.22435316 113.50756156 -64.90159321 111.19880533 C-62.47033005 108.78008964 -60.0447725 106.35566564 -57.61859131 103.93185425 C-53.02927705 99.34874299 -48.43489088 94.77075161 -43.83863807 90.19459999 C-38.60372685 84.98208458 -33.37452942 79.76385302 -28.14579248 74.54514527 C-17.39518523 63.81541327 -6.63746154 53.09284252 4.125 42.375 C3.18126029 41.26182389 2.23576708 40.15013424 1.28955078 39.0390625 C0.76322052 38.4198291 0.23689026 37.8005957 -0.3053894 37.16259766 C-2.4115933 34.76388478 -4.68997803 32.57640025 -7 30.375 C-15.53397817 21.84102183 -15.53397817 21.84102183 -16.08984375 16.19140625 C-15.88232138 10.84093826 -14.12355904 7.67870301 -10.54296875 3.78515625 C-7.1890147 0.94961196 -4.37224481 0.0681035 0 0 Z " fill="#191E1D" transform="translate(487.875,213.625)"/>
<path d="M0 0 C5.31068805 4.43416672 10.24836617 9.11516686 15.12109375 14.0234375 C16.23823509 15.14270126 16.23823509 15.14270126 17.37794495 16.28457642 C19.73350827 18.64569389 22.08555216 21.01028162 24.4375 23.375 C26.04338763 24.98590856 27.64950516 26.59658796 29.25585938 28.20703125 C33.17323513 32.13537513 37.08773487 36.06656674 41 40 C38.94769996 42.05230004 37.81053004 42.59910103 35.14868164 43.58813477 C34.3576857 43.88506729 33.56668976 44.18199982 32.75172424 44.4879303 C31.89650681 44.80257736 31.04128937 45.11722443 30.16015625 45.44140625 C28.84331093 45.93301491 28.84331093 45.93301491 27.49986267 46.43455505 C24.68929124 47.48234492 21.87593731 48.52243312 19.0625 49.5625 C17.16973928 50.26708782 15.27715882 50.97216007 13.38476562 51.67773438 C9.91781903 52.96847932 6.45033992 54.25773558 2.98071289 55.54125977 C2.28281143 55.79948013 1.58490997 56.0577005 0.86585999 56.32374573 C-0.74697543 56.90829486 -2.37253505 57.45751168 -4 58 C-7.96 54.04 -11.92 50.08 -16 46 C-14.36712827 41.05517145 -12.73233624 36.11105972 -11.09277344 31.16845703 C-10.53697832 29.49108926 -9.98226617 27.8133622 -9.42871094 26.13525391 C-6.52027155 17.32068761 -3.6076652 8.55929795 0 0 Z " fill="#F6F3EB" transform="translate(247,293)"/>
<path d="M0 0 C-7.26030749 2.89288848 -14.26534904 4.86299135 -22 6 C-22 6.33 -22 6.66 -22 7 C-163.9 7 -305.8 7 -452 7 C-452 6.34 -452 5.68 -452 5 C-452.99 4.67 -453.98 4.34 -455 4 C-453.61778206 3.99910437 -453.61778206 3.99910437 -452.20764053 3.99819064 C-397.5780851 3.9624404 -342.94858446 3.90563288 -288.31908023 3.82207905 C-281.75780501 3.81206174 -275.19652954 3.80221759 -268.63525391 3.79248047 C-267.32903698 3.7905391 -266.02282006 3.78859772 -264.6770208 3.78659752 C-243.53447322 3.75558707 -222.39193648 3.73859953 -201.24937044 3.72680578 C-179.55077378 3.71438929 -157.85223403 3.68687658 -136.15367329 3.64538693 C-122.76743452 3.6202659 -109.38129012 3.60688171 -95.99502744 3.60857043 C-86.81219071 3.60860021 -77.62945002 3.59394971 -68.44665073 3.56783572 C-63.15080944 3.55320644 -57.85516511 3.54497265 -52.5593071 3.55419731 C-47.70414724 3.56251101 -42.84938237 3.55225599 -37.99428095 3.52766338 C-36.24438862 3.52200025 -34.4944586 3.52296321 -32.74457787 3.53148755 C-23.08361757 3.57449136 -14.92608762 2.92882487 -5.71169674 -0.24090171 C-3 -1 -3 -1 0 0 Z " fill="#2D2E2C" transform="translate(537,457)"/>
<path d="M0 0 C5.31068805 4.43416672 10.24836617 9.11516686 15.12109375 14.0234375 C15.86585464 14.76961334 16.61061554 15.51578918 17.37794495 16.28457642 C19.73350827 18.64569389 22.08555216 21.01028162 24.4375 23.375 C26.04338763 24.98590856 27.64950516 26.59658796 29.25585938 28.20703125 C33.17323513 32.13537513 37.08773487 36.06656674 41 40 C38.23776722 42.76223278 35.79293383 42.57856291 32 43 C34 41 34 41 37 39 C32.07740854 34.0267803 27.14705716 29.06135381 22.21118164 24.10131836 C20.53229091 22.41235785 18.85519796 20.72160833 17.17993164 19.02905273 C14.77437993 16.599296 12.36247812 14.17600476 9.94921875 11.75390625 C9.19912033 10.99348526 8.44902191 10.23306427 7.67619324 9.44960022 C6.97569351 8.74894943 6.27519379 8.04829865 5.5534668 7.32641602 C4.93835739 6.70686539 4.32324799 6.08731476 3.6894989 5.44898987 C1.95185838 3.7741946 1.95185838 3.7741946 -1 3 C-0.67 2.01 -0.34 1.02 0 0 Z " fill="#FBFBFA" transform="translate(247,293)"/>
<path d="M0 0 C0.99 0.33 1.98 0.66 3 1 C-1.69766975 6.66129431 -6.74723372 11.85228904 -12 17 C-12.67578125 15.203125 -12.67578125 15.203125 -13 13 C-11.85546875 11.296875 -11.85546875 11.296875 -10.1875 9.75 C-9.64480469 9.22921875 -9.10210937 8.7084375 -8.54296875 8.171875 C-7 7 -7 7 -5 7 C-4.731875 6.360625 -4.46375 5.72125 -4.1875 5.0625 C-3 3 -3 3 0 2 C0 1.34 0 0.68 0 0 Z " fill="#2D302E" transform="translate(141,214)"/>
<path d="M0 0 C0 4.19605135 -2.20743057 6.12629053 -5 9 C-6.92952188 10.71558769 -8.8955921 12.38308871 -10.86328125 14.0546875 C-14.55484437 17.41556215 -17.76476571 21.20548319 -21 25 C-21.66 24.34 -22.32 23.68 -23 23 C-15.41 15.41 -7.82 7.82 0 0 Z " fill="#222726" transform="translate(447,303)"/>
<path d="M0 0 C0.66 0 1.32 0 2 0 C0.52278578 3.45201639 -1.43794001 5.64961936 -4.125 8.25 C-4.84945312 8.95640625 -5.57390625 9.6628125 -6.3203125 10.390625 C-6.87460938 10.92171875 -7.42890625 11.4528125 -8 12 C-8.33 11.01 -8.66 10.02 -9 9 C-8.34 8.01 -7.68 7.02 -7 6 C-6.34 6 -5.68 6 -5 6 C-5 5.34 -5 4.68 -5 4 C-4.34 4 -3.68 4 -3 4 C-3 3.34 -3 2.68 -3 2 C-2.01 2 -1.02 2 0 2 C0 1.34 0 0.68 0 0 Z " fill="#E6E5E2" transform="translate(146,168)"/>
<path d="M0 0 C0.66 0.33 1.32 0.66 2 1 C0.47005208 2.23697917 -1.05989583 3.47395833 -2.58984375 4.7109375 C-4.13266437 5.9666391 -4.13266437 5.9666391 -5 8 C-7.5625 8.625 -7.5625 8.625 -10 9 C-9.25 6.5625 -9.25 6.5625 -8 4 C-6.125 3.375 -6.125 3.375 -4 3 C-1.7927642 1.51199628 -1.7927642 1.51199628 0 0 Z " fill="#252A28" transform="translate(41,17)"/>
<path d="M0 0 C1.859375 0.24609375 1.859375 0.24609375 4 1 C5.265625 2.84765625 5.265625 2.84765625 6.25 5.0625 C6.75273438 6.16271484 6.75273438 6.16271484 7.265625 7.28515625 C7.50796875 7.85105469 7.7503125 8.41695312 8 9 C6.68 9 5.36 9 4 9 C4 7.35 4 5.7 4 4 C2.68 3.34 1.36 2.68 0 2 C0 1.34 0 0.68 0 0 Z " fill="#292B2A" transform="translate(584,41)"/>
<path d="M0 0 C0.33 0.66 0.66 1.32 1 2 C0.34 1.67 -0.32 1.34 -1 1 C-0.67 0.67 -0.34 0.34 0 0 Z M-4 2 C-3.34 2.66 -2.68 3.32 -2 4 C-4.39509338 6.89932357 -6.31245243 7.50168276 -10 8 C-8 6 -6 4 -4 2 Z " fill="#EAE8E4" transform="translate(131,230)"/>
<path d="M0 0 C3 0 3 0 4.5 1.3125 C4.995 1.869375 5.49 2.42625 6 3 C6.556875 3.556875 7.11375 4.11375 7.6875 4.6875 C8.3371875 5.3371875 8.3371875 5.3371875 9 6 C6.69 5.67 4.38 5.34 2 5 C1.34 3.35 0.68 1.7 0 0 Z " fill="#252827" transform="translate(39,478)"/>
<path d="M0 0 C0.66 0.33 1.32 0.66 2 1 C-0.31 3.31 -2.62 5.62 -5 8 C-5.66 7.01 -6.32 6.02 -7 5 C-6.21625 4.54625 -5.4325 4.0925 -4.625 3.625 C-1.96301969 2.11571258 -1.96301969 2.11571258 0 0 Z " fill="#282C2B" transform="translate(172,146)"/>
<path d="M0 0 C2.375 0.3125 2.375 0.3125 5 1 C5.66 1.99 6.32 2.98 7 4 C3 4 3 4 0 2 C0 1.34 0 0.68 0 0 Z " fill="#242725" transform="translate(564,20)"/>
<path d="M0 0 C2.97 0.33 5.94 0.66 9 1 C9 1.33 9 1.66 9 2 C6.36 2.33 3.72 2.66 1 3 C0.67 2.01 0.34 1.02 0 0 Z " fill="#252827" transform="translate(518,25)"/>
</svg>
